<svg xmlns="http://www.w3.org/2000/svg" xmlns:xlink="http://www.w3.org/1999/xlink" width="94" zoomAndPan="magnify" viewBox="0 0 70.5 70.499999" height="94" preserveAspectRatio="xMidYMid meet" version="1.0"><defs><g/><clipPath id="85caf2130c"><path d="M 3.054688 25.90625 L 21.742188 25.90625 L 21.742188 44.59375 L 3.054688 44.59375 Z M 3.054688 25.90625 " clip-rule="nonzero"/></clipPath><clipPath id="beda195163"><path d="M 5.304688 25.90625 L 19.492188 25.90625 C 20.734375 25.90625 21.742188 26.914062 21.742188 28.15625 L 21.742188 42.34375 C 21.742188 43.585938 20.734375 44.59375 19.492188 44.59375 L 5.304688 44.59375 C 4.0625 44.59375 3.054688 43.585938 3.054688 42.34375 L 3.054688 28.15625 C 3.054688 26.914062 4.0625 25.90625 5.304688 25.90625 " clip-rule="nonzero"/></clipPath><clipPath id="e5eb6d805c"><path d="M 4 26 L 20 26 L 20 44 L 4 44 Z M 4 26 " clip-rule="nonzero"/></clipPath><clipPath id="9dbe377fde"><path d="M 1.980469 39.339844 L 14.414062 24.234375 L 22.808594 31.144531 L 10.375 46.25 Z M 1.980469 39.339844 " clip-rule="nonzero"/></clipPath><clipPath id="0794f35f9b"><path d="M 8.195312 31.789062 C 4.761719 35.957031 3.859375 40.886719 6.175781 42.796875 C 8.496094 44.703125 13.15625 42.867188 16.59375 38.695312 C 20.027344 34.527344 20.929688 29.597656 18.613281 27.6875 C 16.292969 25.78125 11.632812 27.617188 8.195312 31.789062 " clip-rule="nonzero"/></clipPath><clipPath id="b2c69cffe0"><path d="M 8.847656 31.699219 L 15.539062 31.699219 L 15.539062 38.390625 L 8.847656 38.390625 Z M 8.847656 31.699219 " clip-rule="nonzero"/></clipPath><clipPath id="d5a839e835"><path d="M 15.410156 29.207031 L 17.429688 29.207031 L 17.429688 31.226562 L 15.410156 31.226562 Z M 15.410156 29.207031 " clip-rule="nonzero"/></clipPath><clipPath id="8399839240"><path d="M 16.421875 29.207031 C 15.863281 29.207031 15.410156 29.65625 15.410156 30.214844 C 15.410156 30.773438 15.863281 31.226562 16.421875 31.226562 C 16.980469 31.226562 17.429688 30.773438 17.429688 30.214844 C 17.429688 29.65625 16.980469 29.207031 16.421875 29.207031 " clip-rule="nonzero"/></clipPath></defs><g clip-path="url(#85caf2130c)"><g clip-path="url(#beda195163)"><path fill="#f4f4f4" d="M 3.054688 25.90625 L 21.742188 25.90625 L 21.742188 44.59375 L 3.054688 44.59375 Z M 3.054688 25.90625 " fill-opacity="1" fill-rule="nonzero"/></g></g><g clip-path="url(#e5eb6d805c)"><g clip-path="url(#9dbe377fde)"><g clip-path="url(#0794f35f9b)"><path fill="#000000" d="M 1.980469 39.339844 L 14.414062 24.234375 L 22.808594 31.144531 L 10.375 46.25 Z M 1.980469 39.339844 " fill-opacity="1" fill-rule="nonzero"/></g></g></g><g clip-path="url(#b2c69cffe0)"><path fill="#f4f4f4" d="M 15.535156 35.042969 C 13.027344 35.507812 12.652344 35.882812 12.191406 38.390625 C 11.730469 35.882812 11.355469 35.507812 8.847656 35.042969 C 11.355469 34.582031 11.730469 34.207031 12.191406 31.699219 C 12.652344 34.207031 13.027344 34.582031 15.535156 35.042969 Z M 15.535156 35.042969 " fill-opacity="1" fill-rule="nonzero"/></g><g clip-path="url(#d5a839e835)"><g clip-path="url(#8399839240)"><path fill="#f4f4f4" d="M 15.410156 29.207031 L 17.429688 29.207031 L 17.429688 31.226562 L 15.410156 31.226562 Z M 15.410156 29.207031 " fill-opacity="1" fill-rule="nonzero"/></g></g><g fill="#f4f4f4" fill-opacity="1"><g transform="translate(25.952016, 35.636057)"><g><path d="M 2.296875 0.09375 C 1.941406 0.09375 1.585938 0.03125 1.234375 -0.09375 C 0.878906 -0.226562 0.566406 -0.425781 0.296875 -0.6875 L 0.984375 -1.53125 C 1.179688 -1.363281 1.394531 -1.222656 1.625 -1.109375 C 1.863281 -1.003906 2.097656 -0.953125 2.328125 -0.953125 C 2.585938 -0.953125 2.78125 -1 2.90625 -1.09375 C 3.03125 -1.1875 3.09375 -1.316406 3.09375 -1.484375 C 3.09375 -1.566406 3.070312 -1.640625 3.03125 -1.703125 C 3 -1.765625 2.945312 -1.816406 2.875 -1.859375 C 2.800781 -1.910156 2.71875 -1.957031 2.625 -2 C 2.53125 -2.039062 2.425781 -2.082031 2.3125 -2.125 L 1.59375 -2.4375 C 1.457031 -2.488281 1.320312 -2.554688 1.1875 -2.640625 C 1.0625 -2.734375 0.945312 -2.835938 0.84375 -2.953125 C 0.738281 -3.078125 0.65625 -3.21875 0.59375 -3.375 C 0.539062 -3.53125 0.515625 -3.710938 0.515625 -3.921875 C 0.515625 -4.140625 0.5625 -4.347656 0.65625 -4.546875 C 0.75 -4.742188 0.878906 -4.914062 1.046875 -5.0625 C 1.222656 -5.207031 1.425781 -5.320312 1.65625 -5.40625 C 1.894531 -5.488281 2.15625 -5.53125 2.4375 -5.53125 C 2.757812 -5.53125 3.070312 -5.46875 3.375 -5.34375 C 3.6875 -5.21875 3.957031 -5.039062 4.1875 -4.8125 L 3.5625 -4.046875 C 3.382812 -4.179688 3.207031 -4.285156 3.03125 -4.359375 C 2.851562 -4.429688 2.65625 -4.46875 2.4375 -4.46875 C 2.226562 -4.46875 2.0625 -4.425781 1.9375 -4.34375 C 1.8125 -4.257812 1.75 -4.140625 1.75 -3.984375 C 1.75 -3.898438 1.769531 -3.828125 1.8125 -3.765625 C 1.851562 -3.710938 1.910156 -3.660156 1.984375 -3.609375 C 2.054688 -3.566406 2.144531 -3.523438 2.25 -3.484375 C 2.351562 -3.441406 2.460938 -3.394531 2.578125 -3.34375 L 3.265625 -3.0625 C 3.597656 -2.925781 3.859375 -2.738281 4.046875 -2.5 C 4.242188 -2.269531 4.34375 -1.960938 4.34375 -1.578125 C 4.34375 -1.347656 4.296875 -1.132812 4.203125 -0.9375 C 4.117188 -0.738281 3.988281 -0.5625 3.8125 -0.40625 C 3.632812 -0.25 3.414062 -0.125 3.15625 -0.03125 C 2.90625 0.0507812 2.617188 0.09375 2.296875 0.09375 Z M 2.296875 0.09375 "/></g></g></g><g fill="#f4f4f4" fill-opacity="1"><g transform="translate(30.581091, 35.636057)"><g><path d="M 0.640625 0 L 0.640625 -5.4375 L 2.5 -5.4375 C 2.800781 -5.4375 3.082031 -5.40625 3.34375 -5.34375 C 3.601562 -5.28125 3.832031 -5.179688 4.03125 -5.046875 C 4.226562 -4.910156 4.378906 -4.726562 4.484375 -4.5 C 4.597656 -4.28125 4.65625 -4.007812 4.65625 -3.6875 C 4.65625 -3.363281 4.597656 -3.082031 4.484375 -2.84375 C 4.378906 -2.613281 4.226562 -2.425781 4.03125 -2.28125 C 3.832031 -2.132812 3.601562 -2.023438 3.34375 -1.953125 C 3.09375 -1.878906 2.828125 -1.84375 2.546875 -1.84375 L 1.859375 -1.84375 L 1.859375 0 Z M 1.859375 -2.8125 L 2.46875 -2.8125 C 3.132812 -2.8125 3.46875 -3.101562 3.46875 -3.6875 C 3.46875 -3.96875 3.378906 -4.164062 3.203125 -4.28125 C 3.023438 -4.394531 2.769531 -4.453125 2.4375 -4.453125 L 1.859375 -4.453125 Z M 1.859375 -2.8125 "/></g></g></g><g fill="#f4f4f4" fill-opacity="1"><g transform="translate(35.543194, 35.636057)"><g><path d="M 0.640625 0 L 0.640625 -5.4375 L 1.859375 -5.4375 L 1.859375 0 Z M 0.640625 0 "/></g></g></g><g fill="#f4f4f4" fill-opacity="1"><g transform="translate(38.049224, 35.636057)"><g><path d="M 2.90625 0.09375 C 2.5625 0.09375 2.234375 0.0351562 1.921875 -0.078125 C 1.617188 -0.203125 1.351562 -0.378906 1.125 -0.609375 C 0.894531 -0.835938 0.710938 -1.125 0.578125 -1.46875 C 0.453125 -1.820312 0.390625 -2.226562 0.390625 -2.6875 C 0.390625 -3.132812 0.457031 -3.53125 0.59375 -3.875 C 0.726562 -4.226562 0.910156 -4.523438 1.140625 -4.765625 C 1.378906 -5.015625 1.65625 -5.203125 1.96875 -5.328125 C 2.28125 -5.460938 2.609375 -5.53125 2.953125 -5.53125 C 3.296875 -5.53125 3.609375 -5.457031 3.890625 -5.3125 C 4.171875 -5.175781 4.398438 -5.015625 4.578125 -4.828125 L 3.9375 -4.046875 C 3.789062 -4.171875 3.640625 -4.269531 3.484375 -4.34375 C 3.335938 -4.425781 3.164062 -4.46875 2.96875 -4.46875 C 2.789062 -4.46875 2.617188 -4.425781 2.453125 -4.34375 C 2.285156 -4.269531 2.140625 -4.15625 2.015625 -4 C 1.898438 -3.851562 1.804688 -3.671875 1.734375 -3.453125 C 1.671875 -3.234375 1.640625 -2.988281 1.640625 -2.71875 C 1.640625 -2.15625 1.757812 -1.71875 2 -1.40625 C 2.238281 -1.101562 2.554688 -0.953125 2.953125 -0.953125 C 3.179688 -0.953125 3.378906 -1 3.546875 -1.09375 C 3.722656 -1.195312 3.878906 -1.320312 4.015625 -1.46875 L 4.65625 -0.703125 C 4.207031 -0.171875 3.625 0.09375 2.90625 0.09375 Z M 2.90625 0.09375 "/></g></g></g><g fill="#f4f4f4" fill-opacity="1"><g transform="translate(42.894768, 35.636057)"><g><path d="M 1.921875 -2.75 L 1.78125 -2.25 L 2.9375 -2.25 L 2.8125 -2.75 C 2.738281 -3.019531 2.664062 -3.304688 2.59375 -3.609375 C 2.519531 -3.921875 2.445312 -4.21875 2.375 -4.5 L 2.34375 -4.5 C 2.269531 -4.207031 2.195312 -3.910156 2.125 -3.609375 C 2.0625 -3.304688 1.992188 -3.019531 1.921875 -2.75 Z M -0.046875 0 L 1.65625 -5.4375 L 3.125 -5.4375 L 4.828125 0 L 3.515625 0 L 3.1875 -1.296875 L 1.53125 -1.296875 L 1.203125 0 Z M -0.046875 0 "/></g></g></g><g fill="#f4f4f4" fill-opacity="1"><g transform="translate(26.942089, 40.096392)"><g><path d="M 0.359375 0 L 0.359375 -2.625 L 0.6875 -2.625 L 0.6875 -0.28125 L 1.84375 -0.28125 L 1.84375 0 Z M 0.359375 0 "/></g></g></g><g fill="#f4f4f4" fill-opacity="1"><g transform="translate(29.790768, 40.096392)"><g><path d="M 0.8125 -1.46875 L 0.6875 -1.0625 L 1.46875 -1.0625 L 1.359375 -1.46875 C 1.304688 -1.613281 1.257812 -1.757812 1.21875 -1.90625 C 1.175781 -2.050781 1.132812 -2.203125 1.09375 -2.359375 L 1.078125 -2.359375 C 1.035156 -2.203125 0.992188 -2.050781 0.953125 -1.90625 C 0.910156 -1.757812 0.863281 -1.613281 0.8125 -1.46875 Z M 0.015625 0 L 0.90625 -2.625 L 1.28125 -2.625 L 2.15625 0 L 1.8125 0 L 1.5625 -0.796875 L 0.609375 -0.796875 L 0.359375 0 Z M 0.015625 0 "/></g></g></g><g fill="#f4f4f4" fill-opacity="1"><g transform="translate(32.871122, 40.096392)"><g><path d="M 1.296875 0.046875 C 1.160156 0.046875 1.035156 0.03125 0.921875 0 C 0.804688 -0.0390625 0.703125 -0.109375 0.609375 -0.203125 C 0.523438 -0.296875 0.457031 -0.410156 0.40625 -0.546875 C 0.363281 -0.691406 0.34375 -0.867188 0.34375 -1.078125 L 0.34375 -2.625 L 0.6875 -2.625 L 0.6875 -1.078125 C 0.6875 -0.921875 0.703125 -0.785156 0.734375 -0.671875 C 0.765625 -0.566406 0.804688 -0.484375 0.859375 -0.421875 C 0.910156 -0.359375 0.972656 -0.3125 1.046875 -0.28125 C 1.117188 -0.257812 1.203125 -0.25 1.296875 -0.25 C 1.378906 -0.25 1.457031 -0.257812 1.53125 -0.28125 C 1.601562 -0.3125 1.664062 -0.359375 1.71875 -0.421875 C 1.78125 -0.484375 1.828125 -0.566406 1.859375 -0.671875 C 1.890625 -0.785156 1.90625 -0.921875 1.90625 -1.078125 L 1.90625 -2.625 L 2.234375 -2.625 L 2.234375 -1.078125 C 2.234375 -0.867188 2.207031 -0.691406 2.15625 -0.546875 C 2.113281 -0.410156 2.050781 -0.296875 1.96875 -0.203125 C 1.882812 -0.109375 1.78125 -0.0390625 1.65625 0 C 1.539062 0.03125 1.421875 0.046875 1.296875 0.046875 Z M 1.296875 0.046875 "/></g></g></g><g fill="#f4f4f4" fill-opacity="1"><g transform="translate(36.354902, 40.096392)"><g><path d="M 0.359375 0 L 0.359375 -2.625 L 0.703125 -2.625 L 1.65625 -0.96875 L 1.9375 -0.4375 L 1.953125 -0.4375 C 1.941406 -0.5625 1.929688 -0.695312 1.921875 -0.84375 C 1.910156 -0.988281 1.90625 -1.128906 1.90625 -1.265625 L 1.90625 -2.625 L 2.234375 -2.625 L 2.234375 0 L 1.890625 0 L 0.9375 -1.65625 L 0.640625 -2.1875 L 0.625 -2.1875 C 0.632812 -2.050781 0.644531 -1.914062 0.65625 -1.78125 C 0.664062 -1.644531 0.671875 -1.507812 0.671875 -1.375 L 0.671875 0 Z M 0.359375 0 "/></g></g></g><g fill="#f4f4f4" fill-opacity="1"><g transform="translate(39.846671, 40.096392)"><g><path d="M 1.359375 0.046875 C 1.191406 0.046875 1.035156 0.015625 0.890625 -0.046875 C 0.753906 -0.109375 0.632812 -0.195312 0.53125 -0.3125 C 0.425781 -0.425781 0.34375 -0.566406 0.28125 -0.734375 C 0.226562 -0.898438 0.203125 -1.09375 0.203125 -1.3125 C 0.203125 -1.519531 0.234375 -1.707031 0.296875 -1.875 C 0.359375 -2.039062 0.441406 -2.179688 0.546875 -2.296875 C 0.648438 -2.421875 0.769531 -2.515625 0.90625 -2.578125 C 1.050781 -2.640625 1.207031 -2.671875 1.375 -2.671875 C 1.53125 -2.671875 1.664062 -2.632812 1.78125 -2.5625 C 1.90625 -2.5 2.007812 -2.425781 2.09375 -2.34375 L 1.90625 -2.125 C 1.84375 -2.207031 1.765625 -2.269531 1.671875 -2.3125 C 1.585938 -2.351562 1.488281 -2.375 1.375 -2.375 C 1.25 -2.375 1.132812 -2.347656 1.03125 -2.296875 C 0.9375 -2.253906 0.851562 -2.1875 0.78125 -2.09375 C 0.707031 -2 0.648438 -1.882812 0.609375 -1.75 C 0.566406 -1.625 0.546875 -1.476562 0.546875 -1.3125 C 0.546875 -1.15625 0.566406 -1.007812 0.609375 -0.875 C 0.648438 -0.738281 0.703125 -0.625 0.765625 -0.53125 C 0.835938 -0.4375 0.921875 -0.363281 1.015625 -0.3125 C 1.117188 -0.269531 1.234375 -0.25 1.359375 -0.25 C 1.492188 -0.25 1.609375 -0.273438 1.703125 -0.328125 C 1.796875 -0.378906 1.882812 -0.453125 1.96875 -0.546875 L 2.15625 -0.328125 C 2.050781 -0.210938 1.929688 -0.117188 1.796875 -0.046875 C 1.671875 0.015625 1.523438 0.046875 1.359375 0.046875 Z M 1.359375 0.046875 "/></g></g></g><g fill="#f4f4f4" fill-opacity="1"><g transform="translate(43.034869, 40.096392)"><g><path d="M 0.359375 0 L 0.359375 -2.625 L 0.6875 -2.625 L 0.6875 -1.53125 L 1.90625 -1.53125 L 1.90625 -2.625 L 2.25 -2.625 L 2.25 0 L 1.90625 0 L 1.90625 -1.234375 L 0.6875 -1.234375 L 0.6875 0 Z M 0.359375 0 "/></g></g></g><g fill="#f4f4f4" fill-opacity="1"><g transform="translate(46.546609, 40.096392)"><g/></g></g><g fill="#f4f4f4" fill-opacity="1"><g transform="translate(48.252908, 40.096392)"><g><path d="M 1.359375 0.046875 C 1.191406 0.046875 1.035156 0.015625 0.890625 -0.046875 C 0.753906 -0.109375 0.632812 -0.195312 0.53125 -0.3125 C 0.425781 -0.425781 0.34375 -0.566406 0.28125 -0.734375 C 0.226562 -0.898438 0.203125 -1.09375 0.203125 -1.3125 C 0.203125 -1.519531 0.234375 -1.707031 0.296875 -1.875 C 0.359375 -2.039062 0.441406 -2.179688 0.546875 -2.296875 C 0.648438 -2.421875 0.769531 -2.515625 0.90625 -2.578125 C 1.050781 -2.640625 1.207031 -2.671875 1.375 -2.671875 C 1.53125 -2.671875 1.664062 -2.632812 1.78125 -2.5625 C 1.90625 -2.5 2.007812 -2.425781 2.09375 -2.34375 L 1.90625 -2.125 C 1.84375 -2.207031 1.765625 -2.269531 1.671875 -2.3125 C 1.585938 -2.351562 1.488281 -2.375 1.375 -2.375 C 1.25 -2.375 1.132812 -2.347656 1.03125 -2.296875 C 0.9375 -2.253906 0.851562 -2.1875 0.78125 -2.09375 C 0.707031 -2 0.648438 -1.882812 0.609375 -1.75 C 0.566406 -1.625 0.546875 -1.476562 0.546875 -1.3125 C 0.546875 -1.15625 0.566406 -1.007812 0.609375 -0.875 C 0.648438 -0.738281 0.703125 -0.625 0.765625 -0.53125 C 0.835938 -0.4375 0.921875 -0.363281 1.015625 -0.3125 C 1.117188 -0.269531 1.234375 -0.25 1.359375 -0.25 C 1.492188 -0.25 1.609375 -0.273438 1.703125 -0.328125 C 1.796875 -0.378906 1.882812 -0.453125 1.96875 -0.546875 L 2.15625 -0.328125 C 2.050781 -0.210938 1.929688 -0.117188 1.796875 -0.046875 C 1.671875 0.015625 1.523438 0.046875 1.359375 0.046875 Z M 1.359375 0.046875 "/></g></g></g><g fill="#f4f4f4" fill-opacity="1"><g transform="translate(51.441106, 40.096392)"><g><path d="M 1.328125 0.046875 C 1.160156 0.046875 1.007812 0.015625 0.875 -0.046875 C 0.738281 -0.109375 0.617188 -0.195312 0.515625 -0.3125 C 0.421875 -0.4375 0.34375 -0.582031 0.28125 -0.75 C 0.226562 -0.925781 0.203125 -1.117188 0.203125 -1.328125 C 0.203125 -1.535156 0.226562 -1.722656 0.28125 -1.890625 C 0.34375 -2.054688 0.421875 -2.195312 0.515625 -2.3125 C 0.617188 -2.425781 0.738281 -2.515625 0.875 -2.578125 C 1.007812 -2.640625 1.160156 -2.671875 1.328125 -2.671875 C 1.492188 -2.671875 1.644531 -2.640625 1.78125 -2.578125 C 1.914062 -2.515625 2.03125 -2.425781 2.125 -2.3125 C 2.226562 -2.195312 2.304688 -2.054688 2.359375 -1.890625 C 2.421875 -1.722656 2.453125 -1.535156 2.453125 -1.328125 C 2.453125 -1.117188 2.421875 -0.925781 2.359375 -0.75 C 2.304688 -0.582031 2.226562 -0.4375 2.125 -0.3125 C 2.03125 -0.195312 1.914062 -0.109375 1.78125 -0.046875 C 1.644531 0.015625 1.492188 0.046875 1.328125 0.046875 Z M 1.328125 -0.25 C 1.441406 -0.25 1.546875 -0.269531 1.640625 -0.3125 C 1.734375 -0.363281 1.8125 -0.4375 1.875 -0.53125 C 1.945312 -0.632812 2.003906 -0.75 2.046875 -0.875 C 2.085938 -1.007812 2.109375 -1.160156 2.109375 -1.328125 C 2.109375 -1.484375 2.085938 -1.625 2.046875 -1.75 C 2.003906 -1.882812 1.945312 -2 1.875 -2.09375 C 1.8125 -2.1875 1.734375 -2.253906 1.640625 -2.296875 C 1.546875 -2.347656 1.441406 -2.375 1.328125 -2.375 C 1.210938 -2.375 1.109375 -2.347656 1.015625 -2.296875 C 0.921875 -2.253906 0.835938 -2.1875 0.765625 -2.09375 C 0.691406 -2 0.632812 -1.882812 0.59375 -1.75 C 0.5625 -1.625 0.546875 -1.484375 0.546875 -1.328125 C 0.546875 -1.160156 0.5625 -1.007812 0.59375 -0.875 C 0.632812 -0.75 0.691406 -0.632812 0.765625 -0.53125 C 0.835938 -0.4375 0.921875 -0.363281 1.015625 -0.3125 C 1.109375 -0.269531 1.210938 -0.25 1.328125 -0.25 Z M 1.328125 -0.25 "/></g></g></g><g fill="#f4f4f4" fill-opacity="1"><g transform="translate(55.000779, 40.096392)"><g><path d="M 0.5 0.046875 C 0.4375 0.046875 0.378906 0.0234375 0.328125 -0.015625 C 0.285156 -0.0664062 0.265625 -0.128906 0.265625 -0.203125 C 0.265625 -0.273438 0.285156 -0.332031 0.328125 -0.375 C 0.378906 -0.425781 0.4375 -0.453125 0.5 -0.453125 C 0.5625 -0.453125 0.613281 -0.425781 0.65625 -0.375 C 0.707031 -0.332031 0.734375 -0.273438 0.734375 -0.203125 C 0.734375 -0.128906 0.707031 -0.0664062 0.65625 -0.015625 C 0.613281 0.0234375 0.5625 0.046875 0.5 0.046875 Z M 0.5 0.046875 "/></g></g></g></svg>